<svg xmlns="http://www.w3.org/2000/svg" viewBox="0 0 800 600" fill="none" style="background-color: #f8fafc;">
  <defs>
    <pattern id="grid" width="40" height="40" patternUnits="userSpaceOnUse">
      <path d="M 40 0 L 0 0 0 40" fill="none" stroke="#e2e8f0" stroke-width="1"/>
    </pattern>
  </defs>
  <rect width="100%" height="100%" fill="url(#grid)" />

  <rect x="100" y="100" width="600" height="400" rx="20" fill="white" stroke="#e2e8f0" stroke-width="2" style="filter: drop-shadow(0 20px 25px rgb(0 0 0 / 0.1));" />
  
  <rect x="100" y="100" width="600" height="60" rx="20" fill="#f1f5f9" clip-path="inset(0 0 340px 0)" />
  <circle cx="140" cy="130" r="6" fill="#ef4444" />
  <circle cx="160" cy="130" r="6" fill="#eab308" />
  <circle cx="180" cy="130" r="6" fill="#22c55e" />

  <path d="M150 400 L250 350 L350 380 L450 250 L550 300 L650 200" stroke="#3b82f6" stroke-width="4" stroke-linecap="round" stroke-linejoin="round" fill="none" />
  <circle cx="150" cy="400" r="6" fill="#3b82f6" />
  <circle cx="250" cy="350" r="6" fill="#3b82f6" />
  <circle cx="350" cy="380" r="6" fill="#3b82f6" />
  <circle cx="450" cy="250" r="6" fill="#3b82f6" />
  <circle cx="550" cy="300" r="6" fill="#3b82f6" />
  <circle cx="650" cy="200" r="8" fill="#2563eb" stroke="white" stroke-width="3" />

  <rect x="580" y="150" width="160" height="100" rx="10" fill="#1e293b" />
  <rect x="600" y="170" width="80" height="10" rx="5" fill="#475569" />
  <rect x="600" y="190" width="120" height="10" rx="5" fill="#334155" />
</svg>